<svg height="512" viewBox="0 0 512 512" width="512" xmlns="http://www.w3.org/2000/svg"><g id="FILLED_OUTLINE"><path d="m481.17 89.41-20.98-26.69c-.01-.01-.02-.02-.02-.03l-1.69-2.15a23.54815 23.54815 0 0 0 -16.35-8.05l-142.87253 394.86787-164.35747-8.73787 21.88 27.86a32.01265 32.01265 0 0 0 23.12 12.18l144.14 9.27a31.98056 31.98056 0 0 0 32.02-20.71l129.91-346.82a32.01966 32.01966 0 0 0 -4.8-30.99z" fill="#6562f1"/><path d="m462.89 84.59-131.53 351.17a31.98882 31.98882 0 0 1 -32.02 20.71l-147.84-9.51a23.81064 23.81064 0 0 1 -20.76-32.1l131.53-351.17a31.99916 31.99916 0 0 1 32.03-20.71l147.83 9.51a23.54815 23.54815 0 0 1 16.35 8.05 21.87107 21.87107 0 0 1 1.69 2.15c0 .01.01.02.02.03a23.68711 23.68711 0 0 1 2.7 21.87z" fill="#8380f3"/><path d="m292.859 115.522-27.062 72.433 104.687 6.702 27.002-72.401z" fill="#9b99f5"/><path d="m299.34 456.47-147.84-9.51a23.59622 23.59622 0 0 1 -16.6-8.34l21.88 27.86a32.01265 32.01265 0 0 0 23.12 12.18l144.14 9.27a31.91594 31.91594 0 0 0 18.811-4.691l-24.702-31.461a31.90223 31.90223 0 0 1 -18.809 4.692z" fill="#5350ef"/><path d="m342.89069 198.29425-29.64264-37.75336-151.01343 118.57044 29.64258 37.75336c21.82824 27.80078 73.329 23.79492 115.03021-8.94739s57.81146-81.8223 35.98328-109.62305z" fill="#e2ac40"/><path d="m309.84473 214.50049 35.57379 45.30751c1.27551-2.90136 2.40265-5.80346 3.34582-8.69268l-32.62762-41.55524z" fill="#f2c34e"/><path d="m332.33844 282.01233-34.51422-43.95764-6.292 4.94043 35.68518 45.449q2.69944-3.17328 5.12104-6.43179z" fill="#f2c34e"/><path d="m273.97656 259.499-6.292 4.94043 36.03516 45.8949c1.067-.79163 2.13256-1.58862 3.18768-2.417s2.08228-1.67444 3.10443-2.5232z" fill="#f2c34e"/><path d="m246.41846 276.21777-6.292 4.94043 35.58191 45.318c2.49128-1.059 4.981-2.20252 7.46314-3.44886z" fill="#f2c34e"/><path d="m251.035 333.91467-37.3182-47.52893-6.292 4.94043 34.37189 43.77643c3.03052-.23077 6.11719-.63721 9.23831-1.18793z" fill="#f2c34e"/><path d="m159.45233 45.8183-35.38833-18.64594-82.04191 155.7085 35.38831 18.64587c23.45325 12.35743 60.8316-12.48144 83.48688-55.47918 22.65527-42.99768 22.0083-87.87189-1.44495-100.22925z" fill="#dfdfdf"/><path d="m176.92419 95.71509-45.10192-23.76392-3.7295 7.07813 47.61963 25.09045q.77481-4.27807 1.21179-8.40466z" fill="#f4f4f4"/><path d="m118.67822 119.28076-3.72949 7.07813 44.035 23.202c.64722-1.15887 1.28815-2.32635 1.91352-3.5133.62543-1.18695 1.226-2.3758 1.81592-3.56488z" fill="#f4f4f4"/><path d="m134.69159 181.97369-44.10077-23.23639-3.72949 7.07813 41.58319 21.90991q3.1539-2.68423 6.24707-5.75165z" fill="#f4f4f4"/><path d="m316.453 44.406-14.375 38.379 107.499 6.919 14.377-38.379z" fill="#6562f1"/><ellipse cx="237.741" cy="219.826" fill="#f2c34e" rx="96" ry="64" transform="matrix(.787 -.618 .618 .787 -85.004 193.745)"/><path d="m281.787 185.243-63.807 9.414-24.284 59.752 63.807-9.414z" fill="#eab84b"/><path d="m257.503 244.995-26.054-20.228-13.469-30.11-24.284 59.752z" fill="#e2ac40"/><path d="m192.161 363.012h8v17.681h-8z" fill="#6562f1" transform="matrix(.064 -.998 .998 .064 -187.523 543.722)"/><path d="m265.259 333.617h8v85.878h-8z" fill="#6562f1" transform="matrix(.064 -.998 .998 .064 -123.814 621.075)"/><path d="m177.12 399.251h8v17.681h-8z" fill="#6562f1" transform="matrix(.064 -.998 .998 .064 -237.759 562.635)"/><path d="m252.108 364.927h8v95.981h-8z" fill="#6562f1" transform="matrix(.064 -.998 .998 .064 -172.406 641.977)"/><ellipse cx="83.043" cy="105.027" fill="#ededed" rx="88" ry="48" transform="matrix(.466 -.885 .885 .466 -48.585 129.538)"/><path d="m108.46826 65.14844-6.10058-5.17578-19.13184 22.549-12.10254-6.37666-3.72949 7.07764 10.53 5.54809-23.28391 27.44265a3.99993 3.99993 0 0 0 1.18555 6.12646l35.38818 18.64649 3.72949-7.07813-30.97656-16.32129 21.20789-24.99591 17.60754 9.27716 3.72949-7.07763-16.035-8.44861z" fill="#bebebe"/><path d="m139.28418 307.04346a63.29742 63.29742 0 0 1 -9.66357-10.32862c-8.38331-11.25293-12.94288-24.89892-13.55225-40.55957l7.99414-.31054c.54541 14.01513 4.57373 26.15771 11.97314 36.09082a55.27633 55.27633 0 0 0 8.44 9.021z" fill="#bebebe"/><path d="m124.81787 240.5249-7.93066-1.0498a118.132 118.132 0 0 1 3.45312-16.563l7.69824 2.17578a110.2237 110.2237 0 0 0 -3.2207 15.43702z" fill="#bebebe"/><path d="m214.32666 112.74121-7.86133-1.48242c3.79785-20.14209 3.96826-38.94629.49317-54.38037l7.80468-1.75684c3.71289 16.48926 3.56202 36.41406-.43652 57.61963z" fill="#bebebe"/><path d="m201.855 41.7085a47.64983 47.64983 0 0 0 -12.41162-16.53662l5.11426-6.15137a55.56016 55.56016 0 0 1 14.53076 19.271z" fill="#bebebe"/><g fill="#292956"><path d="m484.31445 86.94189-21.19018-26.98846a27.52282 27.52282 0 0 0 -20.7356-11.4505l-147.835-9.51416a35.79135 35.79135 0 0 0 -36.0249 23.29834l-32.03833 85.5365a143.20446 143.20446 0 0 0 -30.74292 18.51868c-20.78272 16.31787-36.10547 37.11572-43.14551 58.563-7.22656 22.01661-4.92334 42.145 6.48682 56.67627l11.71454 14.91992-43.80532 116.95457a27.54924 27.54924 0 0 0 2.68945 24.84766 28.45466 28.45466 0 0 0 2.21271 2.96515l21.738 27.68573a36.041 36.041 0 0 0 26.00293 13.69385l144.14209 9.27685q1.19532.07691 2.377.07666a35.77817 35.77817 0 0 0 33.64843-23.37549l129.9043-346.82519a36.21275 36.21275 0 0 0 -5.39851-34.85938zm-65.99682-31.97161-11.44507 30.55172-99.15772-6.38183 11.44324-30.55146zm-258.11451 172.43011c6.55274-19.96289 20.93067-39.4126 40.48487-54.76611 22.36816-17.5625 47.61621-26.63428 69.09082-26.63428 16.83105 0 31.3457 5.57764 40.32324 17.01123 20.43066 26.02148 4.5918 72.67871-35.30762 104.00684-22.36816 17.5625-47.61621 26.63623-69.09033 26.63427-16.83105-.00146-31.3457-5.57763-40.32324-17.01123-9.70459-12.35986-11.54346-29.84711-5.17774-49.24072zm54.8808 73.68079 23.69916 30.18335c-19.04669.83361-34.51288-5.09369-43.75964-16.87l-13.06781-16.64343a69.9374 69.9374 0 0 0 23.66351 3.85437q3.4248 0 6.98828-.27637c.82263-.06396 1.65051-.1621 2.4765-.24792zm33.13526 29.24719-24.03656-30.613a118.84248 118.84248 0 0 0 24.44677-7.72772l24.53846 31.25244a107.34719 107.34719 0 0 1 -24.94867 7.08828zm32.43872-10.50287-24.6051-31.33728a144.66513 144.66513 0 0 0 20.49566-12.75928l24.7027 31.46186a136.15994 136.15994 0 0 1 -20.59326 12.6347zm26.88428-17.57635-24.7016-31.46051a144.66779 144.66779 0 0 0 17.25787-16.88349l24.601 31.33228a136.21162 136.21162 0 0 1 -17.15727 17.01172zm22.25256-23.47626-24.53558-31.24889a118.846 118.846 0 0 0 13.30712-21.9151l24.06257 30.64654a108.18273 108.18273 0 0 1 -12.83411 22.51745zm16.00378-31.43451-23.74664-30.2442c.27936-.78211.57111-1.56305.82849-2.34711 3.55048-10.81647 4.78754-21.17181 3.78784-30.63678l13.07642 16.65436c9.59186 12.21667 11.18732 28.98193 6.05389 46.57373zm-211.30877 168.92334 42.097-112.39453 12.1447 15.46781c10.2373 13.03858 26.58935 20.02442 46.53027 20.02393q3.4248 0 6.98828-.27637c22.50488-1.75049 46.34473-11.70117 67.12744-28.019s36.10547-37.11621 43.14551-58.563c7.22705-22.01709 4.92334-42.145-6.48633-56.67627l-29.64262-37.75349c-11.40918-14.53125-30.41552-21.543-53.519-19.74756a107.96386 107.96386 0 0 0 -26.37689 5.59009l29.52189-78.82056a27.83566 27.83566 0 0 1 28.02-18.1206l16.77612 1.07965-12.48412 33.33099a3.99988 3.99988 0 0 0 3.48926 5.39453l107.499 6.91846c.08643.00586.17237.0083.2583.0083a3.99988 3.99988 0 0 0 3.74414-2.59668l13.33637-35.60034 15.21588.97925a19.80016 19.80016 0 0 1 17.27 26.70459l-131.5302 351.16894a27.83743 27.83743 0 0 1 -28.02 18.12061l-147.835-9.51416a19.80016 19.80016 0 0 1 -17.27-26.70459zm189.80713 67.68017-144.14209-9.27689a28.03376 28.03376 0 0 1 -20.22461-10.65088l-10.38477-13.22612q.84366.10493 1.70068.16169l147.835 9.51416q1.19532.0769 2.37793.07666a35.93628 35.93628 0 0 0 15.67414-3.57941l19.59533 24.95679a28.10442 28.10442 0 0 1 -12.43161 2.024zm157.92382-364.94628-129.90381 346.82519a27.99315 27.99315 0 0 1 -8.63781 11.99555l-19.74762-25.15082a36.01253 36.01253 0 0 0 11.1745-15.5l131.53076-351.16895a28.16385 28.16385 0 0 0 1.59735-6.581l9.78839 12.46679a28.16657 28.16657 0 0 1 4.19824 27.11324z"/><path d="m366.73584 193.25928 7.49609 2.7959 27.00147-72.40137a3.99989 3.99989 0 0 0 -3.49121-5.38965l-104.62647-6.73389-.51367 7.9834 99.2544 6.38819z"/><path d="m193.69531 258.40918a4.0049 4.0049 0 0 0 .58448-.043l63.80712-9.41406a3.999 3.999 0 0 0 3.12159-2.45117l24.28418-59.752a3.99984 3.99984 0 0 0 -4.28956-5.46289l-63.80761 9.41407a3.99893 3.99893 0 0 0 -3.12158 2.45117l-24.2837 59.752a4 4 0 0 0 3.70508 5.50586zm62.09-19.812-21.0929-16.377-10.90527-24.37652 51.65869-7.62152zm-37.62921-33.74994 9.64178 21.55267a4.00029 4.00029 0 0 0 1.19824 1.52637l18.6496 14.47986-47.60858 7.02405z"/><path d="m192.161 363.012h8v17.681h-8z" transform="matrix(.064 -.998 .998 .064 -187.523 543.722)"/><path d="m265.259 333.618h8v85.878h-8z" transform="matrix(.064 -.998 .998 .064 -123.814 621.075)"/><path d="m177.12 399.251h8v17.681h-8z" transform="matrix(.064 -.998 .998 .064 -237.759 562.635)"/><path d="m252.108 364.927h8v95.981h-8z" transform="matrix(.064 -.998 .998 .064 -172.406 641.977)"/><path d="m55.83545 122.33984 35.38818 18.64649 3.72949-7.07813-30.97656-16.32129 21.20789-24.99591 17.60754 9.27716 3.72949-7.07763-16.035-8.44861 17.98175-21.19348-6.10058-5.17578-19.13184 22.549-12.10251-6.37666-3.72949 7.07764 10.53 5.54809-23.28391 27.44265a3.99993 3.99993 0 0 0 1.18555 6.12646z"/><path d="m164.436 147.91211c11.26416-21.37744 17.31152-43.93848 17.02929-63.52686-.29492-20.46191-7.45068-35.41552-20.14844-42.10546l-35.37947-18.64142-.00867-.00507c-12.69775-6.69043-29.07715-4.13721-46.12109 7.189-16.31641 10.8427-31.50537 28.58688-42.76953 49.96432-11.26368 21.37793-17.311 43.939-17.02881 63.52734.29492 20.46192 7.45019 35.41553 20.14795 42.106l35.38818 18.646a32.32831 32.32831 0 0 0 15.24219 3.65429c9.51123 0 20.06152-3.65478 30.87939-10.84326 16.31641-10.84281 31.50537-28.58744 42.76901-49.96488zm-33.435 32.11689-27.9823-14.74341a150.38082 150.38082 0 0 0 24.11712-32.50494l28.31153 14.91669a140.48683 140.48683 0 0 1 -24.44635 32.33166zm28.17578-39.40979-28.31148-14.9167a150.37634 150.37634 0 0 0 13.17425-38.271l27.9823 14.74341a140.47048 140.47048 0 0 1 -12.84509 38.44428zm14.28906-56.11871a91.06661 91.06661 0 0 1 -.36328 9.20123l-27.76595-14.62946a101.2828 101.2828 0 0 0 .74-13.333c-.13953-9.67981-1.83228-18.10736-4.90283-25.03009l16.41357 8.64825c9.98882 5.26269 15.62798 17.74316 15.87847 35.14306zm-145.45754 59.69823c-.26318-18.27344 5.457-39.46875 16.10791-59.68262 10.65039-20.21386 24.89844-36.9165 40.11914-47.03076 9.47022-6.29346 18.50733-9.501 26.42188-9.501a24.4674 24.4674 0 0 1 11.542 2.727c9.98828 5.26269 15.62744 17.74316 15.87842 35.14306.26318 18.273-5.457 39.46875-16.10791 59.68262-10.65039 20.21387-24.89795 36.9165-40.11866 47.03076-14.49365 9.63184-27.97656 12.0376-37.96435 6.77393-9.98829-5.26262-15.62745-17.74309-15.87843-35.14299zm51.2666 53.78906-16.38434-8.63263c7.43616-1.38562 15.33771-4.77459 23.38825-10.1242a101.26592 101.26592 0 0 0 10.57819-8.14875l27.76593 14.62946a91.06455 91.06455 0 0 1 -7.38366 5.5022c-14.49415 9.63134-27.97706 12.03759-37.96437 6.77392z"/><path d="m139.28418 307.04346 5.19141-6.08692a55.27633 55.27633 0 0 1 -8.44-9.021c-7.39941-9.93311-11.42773-22.07569-11.97314-36.09082l-7.99414.31054c.60937 15.66065 5.16894 29.30664 13.55225 40.55957a63.29742 63.29742 0 0 0 9.66362 10.32863z"/><path d="m116.88721 239.4751 7.93066 1.0498a110.2237 110.2237 0 0 1 3.2207-15.437l-7.69824-2.17578a118.132 118.132 0 0 0 -3.45312 16.56298z"/><path d="m206.46533 111.25879 7.86133 1.48242c3.99854-21.20557 4.14941-41.13037.43652-57.61963l-7.80468 1.75684c3.47509 15.43408 3.30468 34.23828-.49317 54.38037z"/><path d="m201.855 41.7085 7.2334-3.417a55.56016 55.56016 0 0 0 -14.53076-19.271l-5.11426 6.15137a47.64983 47.64983 0 0 1 12.41162 16.53663z"/></g></g></svg>