<svg xmlns="http://www.w3.org/2000/svg" width="64" height="50" viewBox="0 0 64 50" version="1.1"><path d="M 10.932 1.659 C 12.819 2.481, 17.994 6.876, 22.432 11.425 C 32.659 21.909, 37.549 25.715, 47.417 30.867 C 54.585 34.609, 62.023 36.337, 61.987 34.250 C 61.972 33.409, 49.541 27.226, 49.429 28.004 C 49.389 28.277, 48.570 27.713, 47.607 26.750 C 46.645 25.788, 45.214 25, 44.429 25 C 43.643 25, 43 24.580, 43 24.067 C 43 23.554, 42.075 22.841, 40.944 22.482 C 39.813 22.123, 34.525 17.421, 29.194 12.032 C 18.306 1.028, 16.717 -0.034, 11.316 0.082 L 7.500 0.163 10.932 1.659 M 61 37.500 C 61 37.775, 61.225 38, 61.500 38 C 61.775 38, 62 37.775, 62 37.500 C 62 37.225, 61.775 37, 61.500 37 C 61.225 37, 61 37.225, 61 37.500" stroke="none" fill="#e6cce4" fill-rule="evenodd"/><path d="M 3.051 2.662 C 0.183 6.309, -0.331 8.964, 0.215 17.323 C 1.105 30.938, 6.891 38.962, 21.035 46.194 C 27.193 49.343, 28.022 49.500, 38.500 49.500 C 48.317 49.500, 50.109 49.214, 55.165 46.844 C 61.299 43.969, 64.344 40.446, 63.827 36.824 C 63.540 34.813, 63.010 34.567, 59.500 34.818 C 56.395 35.040, 53.710 34.168, 47.500 30.918 C 37.545 25.710, 32.669 21.920, 22.451 11.446 C 15.587 4.409, 9.230 0, 5.950 0 C 5.508 0, 4.203 1.198, 3.051 2.662 M 16 0.500 C 16 0.775, 16.225 1, 16.500 1 C 16.775 1, 17 0.775, 17 0.500 C 17 0.225, 16.775 0, 16.500 0 C 16.225 0, 16 0.225, 16 0.500 M 18 1.500 C 18 1.775, 18.225 2, 18.500 2 C 18.775 2, 19 1.775, 19 1.500 C 19 1.225, 18.775 1, 18.500 1 C 18.225 1, 18 1.225, 18 1.500 M 29.500 13 C 30.495 14.100, 31.535 15, 31.810 15 C 32.085 15, 31.495 14.100, 30.500 13 C 29.505 11.900, 28.465 11, 28.190 11 C 27.915 11, 28.505 11.900, 29.500 13 M 38.333 21.667 C 38.700 22.033, 39.300 22.033, 39.667 21.667 C 40.033 21.300, 39.733 21, 39 21 C 38.267 21, 37.967 21.300, 38.333 21.667 M 43 24.500 C 43 24.775, 43.225 25, 43.500 25 C 43.775 25, 44 24.775, 44 24.500 C 44 24.225, 43.775 24, 43.500 24 C 43.225 24, 43 24.225, 43 24.500 M 48 27.500 C 48 27.775, 48.225 28, 48.500 28 C 48.775 28, 49 27.775, 49 27.500 C 49 27.225, 48.775 27, 48.500 27 C 48.225 27, 48 27.225, 48 27.500 M 55 30.500 C 55 30.775, 55.225 31, 55.500 31 C 55.775 31, 56 30.775, 56 30.500 C 56 30.225, 55.775 30, 55.500 30 C 55.225 30, 55 30.225, 55 30.500 M 61 37.500 C 61 37.775, 61.225 38, 61.500 38 C 61.775 38, 62 37.775, 62 37.500 C 62 37.225, 61.775 37, 61.500 37 C 61.225 37, 61 37.225, 61 37.500" stroke="none" fill="#ec648d" fill-rule="evenodd"/></svg>