<svg xmlns="http://www.w3.org/2000/svg" width="68" height="50" viewBox="0 0 68 50" version="1.1"><path d="M 42 1 C 42 1.550, 39.968 2, 37.485 2 C 31.914 2, 23.461 6.493, 19.004 11.823 C 17.314 13.845, 15.384 16.158, 14.715 16.963 C 13.181 18.810, 11.408 21.787, 9.927 25 C 9.293 26.375, 8.143 28.707, 7.371 30.181 C 6.600 31.656, 6.359 33.104, 6.836 33.398 C 7.313 33.693, 10.338 29.874, 13.558 24.910 C 21.426 12.784, 27.198 8.857, 39.743 7.093 C 44.560 6.416, 51.149 5.455, 54.387 4.957 C 61.395 3.879, 62.822 4.466, 60.217 7.355 C 54.362 13.851, 51.436 24.909, 52.901 35 L 53.554 39.500 56.277 33.629 C 57.775 30.400, 59.016 26.575, 59.035 25.129 C 59.055 23.683, 59.714 21.375, 60.500 20 C 61.286 18.625, 61.945 16.323, 61.965 14.885 C 61.984 13.447, 62.900 11.126, 64 9.727 C 65.157 8.256, 66 5.670, 66 3.592 L 66 0 54 0 C 46.667 0, 42 0.389, 42 1" stroke="none" fill="#cb98b7" fill-rule="evenodd"/><path d="M 53.500 5.037 C 50.750 5.477, 44.560 6.396, 39.743 7.080 C 27.193 8.863, 21.420 12.795, 13.558 24.910 C 10.338 29.874, 7.320 33.698, 6.851 33.408 C 6.383 33.119, 5.997 33.696, 5.993 34.691 C 5.990 35.686, 5.093 37.850, 4 39.500 C 1.703 42.968, 1.509 45.769, 3.392 48.250 C 4.571 49.804, 6.757 50, 22.860 50 C 32.975 50, 41 49.601, 41 49.098 C 41 48.602, 42.261 47.756, 43.802 47.219 C 45.343 46.682, 47.990 44.856, 49.684 43.162 C 52.717 40.129, 52.765 39.923, 52.814 29.791 C 52.859 20.227, 53.081 19.102, 55.947 13.859 C 57.644 10.757, 59.695 7.668, 60.505 6.996 C 62.103 5.670, 61.610 3.927, 59.691 4.119 C 59.036 4.184, 56.250 4.597, 53.500 5.037" stroke="none" fill="#ca3d69" fill-rule="evenodd"/></svg>