<svg xmlns="http://www.w3.org/2000/svg" width="60" height="62" viewBox="0 0 60 62" version="1.1"><path d="M 23.913 1.284 C 23.041 1.953, 21.803 3.483, 21.163 4.684 C 20.524 5.886, 20 8.923, 20 11.434 C 20 13.945, 20.450 16, 21 16 C 21.550 16, 21.888 16.396, 21.750 16.880 C 21.613 17.363, 22.526 19.163, 23.780 20.880 C 25.034 22.596, 26.444 24, 26.913 24 C 27.383 24, 28.084 22.987, 28.472 21.750 L 29.178 19.500 29.989 22 C 30.436 23.375, 30.845 23.882, 30.900 23.128 C 30.981 22.022, 31.291 21.997, 32.500 23 C 33.697 23.993, 34.303 23.993, 35.500 23 C 36.325 22.315, 37 21.109, 37 20.319 C 37 19.528, 37.450 19.160, 38 19.500 C 38.550 19.840, 39 19.390, 39 18.500 C 39 17.610, 39.376 17.114, 39.835 17.398 C 40.294 17.682, 42.301 17.413, 44.295 16.801 C 47.166 15.920, 48.265 15.975, 49.576 17.063 C 50.487 17.819, 52.760 18.963, 54.628 19.605 C 56.667 20.306, 58.252 20.401, 58.598 19.842 C 58.914 19.331, 58.448 17.807, 57.563 16.456 C 56.223 14.410, 55.164 14.006, 51.227 14.035 C 48.627 14.055, 45.375 14.714, 44 15.500 C 42.625 16.286, 41.163 16.945, 40.750 16.965 C 40.337 16.984, 40 15.792, 40 14.316 C 40 12.839, 39.112 9.802, 38.028 7.566 C 36.943 5.330, 35.030 2.863, 33.778 2.085 C 32.525 1.307, 30.150 0.535, 28.500 0.369 C 26.850 0.204, 24.786 0.616, 23.913 1.284 M 26 13 C 26 13.550, 26.477 14, 27.059 14 C 27.641 14, 27.840 13.550, 27.500 13 C 27.160 12.450, 26.684 12, 26.441 12 C 26.198 12, 26 12.450, 26 13 M 29.257 15.237 C 29.125 16.996, 29.290 17.156, 30.029 15.987 C 30.546 15.169, 30.976 14.162, 30.985 13.750 C 30.993 13.338, 30.646 13, 30.213 13 C 29.780 13, 29.350 14.007, 29.257 15.237 M 3.655 16.829 C 2.745 17.835, 2 19.046, 2 19.520 C 2 19.994, 2.562 19.624, 3.250 18.696 C 4.388 17.162, 4.604 17.234, 5.656 19.505 C 6.671 21.697, 6.580 22, 4.906 22 C 3.533 22, 3 22.708, 3 24.535 C 3 25.930, 3.742 28.203, 4.648 29.586 C 5.555 30.970, 7.535 32.742, 9.048 33.525 C 11.315 34.697, 11.991 34.716, 12.891 33.632 C 13.491 32.908, 13.669 32.002, 13.285 31.618 C 12.901 31.235, 13.590 30.659, 14.815 30.338 C 16.491 29.900, 16.779 29.438, 15.978 28.473 C 15.140 27.464, 15.653 27.260, 18.384 27.514 L 21.855 27.836 20.438 23.168 C 19.659 20.601, 19.017 18.184, 19.011 17.797 C 19.005 17.410, 17.313 16.625, 15.250 16.053 C 13.188 15.480, 10.107 15.009, 8.405 15.006 C 6.671 15.002, 4.582 15.804, 3.655 16.829 M 32.638 19.500 C 32.322 20.325, 32.499 21, 33.031 21 C 33.564 21, 34 20.325, 34 19.500 C 34 18.675, 33.823 18, 33.607 18 C 33.391 18, 32.955 18.675, 32.638 19.500 M 1.079 22.583 C 1.127 23.748, 1.364 23.985, 1.683 23.188 C 1.972 22.466, 1.936 21.603, 1.604 21.271 C 1.272 20.939, 1.036 21.529, 1.079 22.583 M 57.397 21.816 C 56.778 22.236, 57.086 23.175, 58.195 24.250 C 59.916 25.919, 60 25.910, 60 24.059 C 60 22.991, 59.641 21.896, 59.202 21.625 C 58.763 21.354, 57.951 21.440, 57.397 21.816 M 43 30.500 C 43 30.775, 43.225 31, 43.500 31 C 43.775 31, 44 30.775, 44 30.500 C 44 30.225, 43.775 30, 43.500 30 C 43.225 30, 43 30.225, 43 30.500 M 45.394 37.309 C 46.436 37.964, 48.367 39.400, 49.685 40.500 C 51.003 41.600, 52.719 44.300, 53.497 46.500 C 54.858 50.347, 54.914 50.385, 54.952 47.500 C 54.974 45.850, 54.094 43.026, 52.996 41.225 C 51.898 39.424, 49.845 37.511, 48.434 36.975 C 47.024 36.439, 45.337 36.026, 44.685 36.059 C 44.033 36.091, 44.352 36.654, 45.394 37.309 M 12 42.500 C 12 42.775, 12.225 43, 12.500 43 C 12.775 43, 13 42.775, 13 42.500 C 13 42.225, 12.775 42, 12.500 42 C 12.225 42, 12 42.225, 12 42.500" stroke="none" fill="#f3d7d5" fill-rule="evenodd"/><path d="M 20 5.500 C 20 5.775, 20.225 6, 20.500 6 C 20.775 6, 21 5.775, 21 5.500 C 21 5.225, 20.775 5, 20.500 5 C 20.225 5, 20 5.225, 20 5.500 M 19.186 13 C 19.095 16.025, 19.659 20.601, 20.438 23.168 L 21.855 27.836 18.384 27.514 C 15.653 27.260, 15.140 27.464, 15.978 28.473 C 16.779 29.438, 16.491 29.900, 14.815 30.338 C 13.590 30.659, 12.901 31.235, 13.285 31.618 C 13.669 32.002, 13.486 32.915, 12.879 33.646 C 12.056 34.637, 12.122 35.087, 13.137 35.409 C 13.887 35.647, 15.082 35.996, 15.793 36.185 C 16.674 36.419, 16.125 37.798, 14.071 40.514 C 11.421 44.017, 11.052 45.316, 11.028 51.230 L 11 57.959 15.068 60.035 C 18.527 61.799, 19.646 61.942, 22.535 60.988 C 24.405 60.371, 26.962 58.607, 28.217 57.067 C 29.473 55.528, 31.008 53.420, 31.628 52.384 C 32.702 50.590, 32.876 50.627, 35.255 53.169 C 36.630 54.637, 39.497 56.322, 41.627 56.914 C 43.757 57.505, 46.533 57.991, 47.795 57.994 C 49.058 57.997, 51.228 56.862, 52.619 55.472 C 54.698 53.393, 55.024 52.373, 54.453 49.722 C 54.071 47.950, 53.110 45.231, 52.318 43.680 C 51.525 42.128, 49.329 39.947, 47.438 38.831 C 45.547 37.715, 44 36.573, 44 36.293 C 44 36.013, 45.122 36.065, 46.493 36.409 C 48.229 36.845, 50.193 36.272, 52.964 34.523 C 55.153 33.141, 57.638 30.666, 58.488 29.022 C 59.919 26.256, 59.895 25.895, 58.167 24.167 C 56.475 22.475, 56.450 22.194, 57.900 21.166 C 58.780 20.542, 59.050 20.099, 58.500 20.180 C 57.950 20.261, 56.150 19.969, 54.500 19.530 C 52.850 19.091, 50.731 18.063, 49.790 17.247 C 48.734 16.330, 47.145 15.998, 45.633 16.377 C 44.287 16.715, 42.356 17.261, 41.343 17.590 C 39.813 18.087, 39.755 18.005, 41 17.110 C 42.151 16.282, 42.187 16.027, 41.156 16.015 C 40.417 16.007, 39.579 16.895, 39.293 17.989 C 39.007 19.083, 38.374 19.731, 37.886 19.430 C 37.399 19.128, 37 19.528, 37 20.319 C 37 21.109, 36.325 22.315, 35.500 23 C 34.303 23.993, 33.697 23.993, 32.500 23 C 31.291 21.997, 30.981 22.022, 30.900 23.128 C 30.845 23.882, 30.436 23.375, 29.989 22 L 29.178 19.500 28.472 21.750 C 28.084 22.988, 27.383 24, 26.913 24 C 26.444 24, 25.034 22.596, 23.780 20.880 C 22.526 19.163, 21.613 17.363, 21.750 16.880 C 21.887 16.396, 21.576 16, 21.057 16 C 20.539 16, 19.943 14.088, 19.732 11.750 C 19.385 7.900, 19.334 8.018, 19.186 13 M 26 13 C 26 13.550, 26.477 14, 27.059 14 C 27.641 14, 27.840 13.550, 27.500 13 C 27.160 12.450, 26.684 12, 26.441 12 C 26.198 12, 26 12.450, 26 13 M 29.257 15.237 C 29.125 16.996, 29.290 17.156, 30.029 15.987 C 30.546 15.169, 30.976 14.162, 30.985 13.750 C 30.993 13.338, 30.646 13, 30.213 13 C 29.780 13, 29.350 14.007, 29.257 15.237 M 43 15.500 C 43 15.775, 43.225 16, 43.500 16 C 43.775 16, 44 15.775, 44 15.500 C 44 15.225, 43.775 15, 43.500 15 C 43.225 15, 43 15.225, 43 15.500 M 2.765 18.831 C 3.088 19.672, 2.910 20.062, 2.358 19.721 C 1.766 19.356, 1.447 20.779, 1.553 23.307 C 1.650 25.613, 1.790 27.859, 1.864 28.298 C 1.939 28.737, 3.191 30.199, 4.646 31.548 C 6.101 32.896, 7.632 34, 8.047 34 C 8.463 34, 7.497 32.602, 5.901 30.894 C 4.083 28.948, 3 26.708, 3 24.894 C 3 22.714, 3.470 22, 4.906 22 C 6.551 22, 6.661 21.680, 5.711 19.667 C 5.105 18.383, 4.065 17.333, 3.400 17.333 C 2.735 17.333, 2.449 18.007, 2.765 18.831 M 32.638 19.500 C 32.322 20.325, 32.499 21, 33.031 21 C 33.564 21, 34 20.325, 34 19.500 C 34 18.675, 33.823 18, 33.607 18 C 33.391 18, 32.955 18.675, 32.638 19.500 M 43 30.500 C 43 30.775, 43.225 31, 43.500 31 C 43.775 31, 44 30.775, 44 30.500 C 44 30.225, 43.775 30, 43.500 30 C 43.225 30, 43 30.225, 43 30.500 M 10 34.500 C 10 34.775, 10.225 35, 10.500 35 C 10.775 35, 11 34.775, 11 34.500 C 11 34.225, 10.775 34, 10.500 34 C 10.225 34, 10 34.225, 10 34.500" stroke="none" fill="#c98299" fill-rule="evenodd"/></svg>