<svg id="solana" enable-background="new 0 0 360 360" height="512" viewBox="0 0 360 360" width="512" xmlns="http://www.w3.org/2000/svg"><path d="m134.522 21.628-118.266 118.266c-7.845 7.845-7.845 20.565 0 28.41l180.812 180.812c7.845 7.845 20.565 7.845 28.41 0l38.916-38.916c-.312-.273-.628-.539-.925-.836l-35.237-35.237c-7.298-7.298-7.298-19.13 0-26.428l14.095-14.095c7.298-7.298 19.13-7.298 26.428 0l35.237 35.238c.297.297.563.614.836.925l38.916-38.916c7.845-7.845 7.845-20.565 0-28.41l-180.812-180.813c-7.845-7.846-20.565-7.846-28.41 0z" fill="#555abe"/><path d="m302.867 279.939-28.3 28.3-40.858-40.858c-2.978-2.978-2.978-7.806 0-10.783l17.517-17.517c2.978-2.978 7.806-2.978 10.783 0z" fill="#555abe"/><path d="m337.228 187.555-164.055-164.055 18.499-18.5z" fill="#262964"/><path d="m303.556 138.34-94.211-118.545 13.368-10.624z" fill="#262964"/><circle cx="255.2" cy="260.572" fill="#fff" r="7.786"/><circle cx="145.742" cy="149.716" fill="#262964" r="52.5"/><circle cx="145.742" cy="149.716" fill="#555abe" r="45"/><g fill="#fff"><path d="m125.49 162.093c.362-.362.86-.573 1.388-.573h47.881c.875 0 1.313 1.056.694 1.674l-9.458 9.458c-.362.362-.86.573-1.388.573h-47.881c-.875 0-1.312-1.056-.694-1.674z"/><path d="m125.49 126.779c.377-.362.875-.573 1.388-.573h47.881c.875 0 1.313 1.056.694 1.674l-9.458 9.458c-.362.362-.86.573-1.388.573h-47.881c-.875 0-1.312-1.056-.694-1.674z"/><path d="m165.994 144.323c-.362-.362-.86-.573-1.388-.573h-47.881c-.875 0-1.312 1.056-.694 1.674l9.458 9.458c.362.362.86.573 1.388.573h47.881c.875 0 1.312-1.056.694-1.674z"/></g></svg>